<svg xmlns="http://www.w3.org/2000/svg" xml:space="preserve" width="2000" height="533" data-id="lg_jklIXxPGLSYf09WPoh" data-version="1" viewBox="0 0 2000 533"><g data-padding="20"><g transform="translate(10 10)scale(.96248)"><rect width="448.284" height="448.284" x="303.99" y="-336.428" fill="none" stroke="#fff" stroke-width="22.5" paint-order="stroke" rx="0" ry="0" transform="translate(400.12 400.12)scale(1.19)"/><rect width="361.534" height="257.64" x="447.709" y="-262.44" fill="none" rx="0" ry="0" transform="translate(400.5 400.28)"/><path fill="#fff" stroke="#fff" stroke-width="7.32" d="M944.296 343.95q-17.78 0-33.06-6.27t-26.9-17.55q-11.63-11.29-18.13-26.22-6.5-14.94-6.5-32.27 0-17.32 6.5-32.26 6.5-14.93 17.9-26.22 11.4-11.28 26.79-17.55t32.94-6.27q19.84 0 37.4 7.86 17.55 7.87 28.95 22l-23.03 21.21q-8.2-10.26-19.38-15.51-11.17-5.24-23.94-5.24-10.71 0-19.83 3.99t-15.96 10.94q-6.84 6.96-10.6 16.42-3.77 9.46-3.77 20.63 0 11.18 3.88 20.75 3.88 9.58 10.83 16.53 6.95 6.96 16.19 10.95 9.23 3.99 20.18 3.99 11.4 0 20.52-4.22t15.39-11.86 8.32-17.21h-47.2v-28.73h82.54v10.03q0 17.79-6.04 32.72-6.05 14.93-16.76 25.99-10.72 11.06-25.31 17.22-14.59 6.15-31.92 6.15Zm156.64-2.51h-33.06v-159.6h33.06v71.37l69.76-71.37h40.36l-77.52 75.93 81.17 83.67h-44.23l-69.54-74.1Z"/></g><path fill="transparent" stroke="transparent" d="M733.5 0h533v533h-533z"/></g></svg>